<svg width="192" height="40" viewBox="0 0 192 40" fill="none" xmlns="http://www.w3.org/2000/svg">
<path d="M26.8992 9.44961C25.1834 11.3565 23.6872 13.1772 22.8334 14.3852C22.0934 15.4293 22.1503 15.3861 20.5972 16.18L20.0605 16.4561L18.727 14.7303C18.0033 13.7812 17.3527 12.9356 17.2958 12.8579C17.1738 12.7026 17.1169 12.763 13.7342 16.5682C12.8641 17.5433 12.0184 18.4234 11.8477 18.5183C11.685 18.6219 11.124 18.8376 10.6117 19.0015C9.28623 19.433 8.87965 19.6055 8.44055 19.9507C7.87947 20.3907 7.59487 20.7359 6.37514 22.4271C4.91959 24.4635 4.52927 24.9208 3.57788 25.6887C2.8867 26.2496 1.97597 27.1297 0.325262 28.8295L0 29.1574L0.284604 29.1057C0.439104 29.0798 1.47994 28.8209 2.58583 28.5362L4.60246 28.0185L5.10661 28.3377C5.38309 28.5189 6.50524 29.3386 7.603 30.1497C10.0181 31.9617 10.1807 32.0653 10.3108 31.9272C10.5304 31.6943 10.4165 29.4594 10.0099 26.1633C9.97741 25.8958 9.97741 25.8958 10.2295 25.9735C10.3759 26.0166 10.6686 26.0511 10.8963 26.0511C11.2622 26.0511 11.3842 26.1115 12.1323 26.6379C12.5958 26.9571 13.4089 27.5266 13.9537 27.9063C14.4986 28.2773 15.1328 28.7778 15.3686 29.0021C15.6044 29.2265 15.824 29.4163 15.8565 29.4163C16.0354 29.4163 15.5638 27.9839 14.588 25.5593C14.157 24.4807 14.0351 24.1011 14.0757 23.9198C14.1652 23.5488 14.6937 22.6169 15.9785 20.5288C17.3853 18.2508 17.6455 17.7763 17.7756 17.224C17.8244 16.9997 17.8975 16.7926 17.9301 16.7753C18.0033 16.7322 18.4017 17.5864 18.7107 18.4407C19.2067 19.8126 19.6946 20.5029 21.5161 22.384C24.663 25.6456 29.6883 29.6493 32.5669 31.1852C33.7134 31.7978 35.169 32.1947 35.169 31.9013C35.169 31.6252 31.5992 28.1824 28.6231 25.5765C27.6717 24.7396 27.5253 24.6015 27.5253 24.4807C27.5253 24.4462 28.062 24.6188 28.7288 24.8517C30.5828 25.5161 32.3229 26.0339 33.0792 26.146C33.8842 26.2668 34.1119 26.1892 34.4209 25.706C34.6323 25.3695 34.616 25.0157 34.3802 24.7396C34.0956 24.4031 31.5911 23.1174 30.4527 22.7291C29.9973 22.5738 28.1026 21.3313 27.2814 20.6496C26.6227 20.1146 25.5737 18.9066 25.5737 18.6909C25.5737 18.6305 25.777 18.2508 26.021 17.8539C26.5333 17.0256 26.8992 16.1368 27.0781 15.3257C27.1431 15.0237 27.2976 14.5491 27.4115 14.2644C27.5334 13.9883 27.7611 13.3756 27.9319 12.9097L28.2327 12.0555L28.5255 12.4351C29.3142 13.4706 31.4284 17.1205 31.4284 17.457C31.4284 18.596 33.0385 20.5029 35.9415 22.824C38.1776 24.6101 42.8126 27.6215 46.7158 29.8305C47.5614 30.305 47.7647 30.3137 47.9518 29.8909C48.09 29.5716 47.9436 29.3128 47.35 28.8382C45.496 27.3195 44.5772 26.448 41.1457 22.9362C37.1775 18.8807 36.405 18.0351 36.5513 17.9402C36.779 17.7849 37.4377 17.8453 37.9256 18.0696C38.1939 18.1818 38.8444 18.363 39.373 18.4579C40.9017 18.7427 41.5929 19.1914 43.4713 21.0983C44.9106 22.5652 45.7075 23.2123 46.5938 23.6265C47.2199 23.9198 47.5289 23.8508 47.5289 23.4194C47.5289 23.359 46.4799 22.3753 45.1952 21.245C42.8045 19.131 41.4059 17.69 38.7062 14.5319C38.1858 13.9106 37.6491 13.298 37.5352 13.1686L37.3157 12.927L35.5755 13.7035C34.616 14.135 33.7947 14.4887 33.7459 14.4887C33.6728 14.4887 31.2089 11.6068 28.4116 8.25023L28.2084 8L26.8992 9.44961Z" fill="#080808"/>
<path d="M60.3926 28L56.8926 14.66H61.2926L62.9926 24.28H62.4326L65.1526 14.66H68.1126L70.8526 24.4H70.2526L71.9726 14.66H76.3726L72.8726 28H68.9326L66.3326 19.34H66.9726L64.3326 28H60.3926ZM74.4793 28L79.3993 14.66H83.8393L88.3193 28H84.2193L80.1193 15.16L82.2393 14.98L78.1793 28H74.4793ZM77.5393 25.66L78.2193 22.86H84.0793L84.4593 25.66H77.5393ZM88.8176 28V14.66H92.0576L98.2976 22.82L97.0776 25.46V14.66H100.718V28H97.9176L91.6576 20.18L92.4576 18.36V28H88.8176ZM102.31 28V14.66H108.17C110.516 14.66 112.223 15.2267 113.29 16.36C114.37 17.4933 114.91 19.1533 114.91 21.34C114.91 23.5133 114.37 25.1667 113.29 26.3C112.223 27.4333 110.516 28 108.17 28H102.31ZM106.31 25H107.67C108.656 25 109.423 24.7133 109.97 24.14C110.53 23.5533 110.81 22.62 110.81 21.34C110.81 20.0467 110.53 19.1133 109.97 18.54C109.423 17.9533 108.656 17.66 107.67 17.66H106.31V25ZM115.919 28V14.66H125.379V17.66H119.939V19.82H124.599V22.82H119.919V25H125.379V28H115.919ZM126.872 28V14.66H133.812C135.399 14.66 136.659 15.02 137.592 15.74C138.526 16.46 138.992 17.56 138.992 19.04C138.992 19.5467 138.892 20.08 138.692 20.64C138.492 21.1867 138.179 21.68 137.752 22.12C137.326 22.5467 136.779 22.8467 136.112 23.02L135.552 21.64L139.732 28H134.572L131.492 22.32L133.232 23.74H130.872V28H126.872ZM130.872 20.92H133.312C133.659 20.92 133.966 20.8 134.232 20.56C134.499 20.3067 134.632 19.86 134.632 19.22C134.632 18.6733 134.499 18.28 134.232 18.04C133.966 17.7867 133.659 17.66 133.312 17.66H130.872V20.92ZM147.826 28L144.326 14.66H148.726L150.426 24.28H149.866L152.586 14.66H155.546L158.286 24.4H157.686L159.406 14.66H163.806L160.306 28H156.366L153.766 19.34H154.406L151.766 28H147.826ZM164.614 28V14.66H168.634V28H164.614ZM175.016 28.3C174.336 28.3 173.702 28.2733 173.116 28.22C172.529 28.18 171.982 28.1 171.476 27.98C170.969 27.86 170.496 27.6933 170.056 27.48V23.76C170.762 24.3067 171.509 24.7 172.296 24.94C173.096 25.18 173.789 25.3 174.376 25.3C174.802 25.3 175.149 25.2333 175.416 25.1C175.696 24.9533 175.836 24.6733 175.836 24.26C175.836 23.9933 175.689 23.78 175.396 23.62C175.102 23.4467 174.702 23.2867 174.196 23.14C173.689 22.9933 173.116 22.8133 172.476 22.6C172.116 22.48 171.762 22.3267 171.416 22.14C171.082 21.9533 170.782 21.72 170.516 21.44C170.249 21.1467 170.036 20.8 169.876 20.4C169.716 19.9867 169.636 19.4933 169.636 18.92C169.636 18.2933 169.749 17.7 169.976 17.14C170.216 16.58 170.562 16.0933 171.016 15.68C171.482 15.2533 172.069 14.92 172.776 14.68C173.482 14.44 174.302 14.32 175.236 14.32C175.796 14.32 176.296 14.3533 176.736 14.42C177.189 14.4733 177.616 14.5667 178.016 14.7C178.429 14.82 178.836 14.98 179.236 15.18V18.98C178.942 18.7133 178.589 18.46 178.176 18.22C177.776 17.98 177.356 17.78 176.916 17.62C176.489 17.4467 176.076 17.3467 175.676 17.32C175.369 17.2933 175.062 17.3067 174.756 17.36C174.462 17.4133 174.216 17.5267 174.016 17.7C173.829 17.86 173.736 18.1 173.736 18.42C173.736 18.7133 173.842 18.9467 174.056 19.12C174.269 19.28 174.562 19.42 174.936 19.54C175.322 19.6467 175.749 19.7667 176.216 19.9C176.789 20.06 177.302 20.24 177.756 20.44C178.222 20.64 178.616 20.8867 178.936 21.18C179.269 21.4733 179.522 21.8333 179.696 22.26C179.869 22.6733 179.956 23.1733 179.956 23.76C179.956 24.6533 179.742 25.4467 179.316 26.14C178.902 26.82 178.322 27.3533 177.576 27.74C176.842 28.1133 175.989 28.3 175.016 28.3ZM180.954 28V14.66H190.414V17.66H184.974V19.82H189.634V22.82H184.954V25H190.414V28H180.954Z" fill="#080808"/>
</svg>
